<?xml version="1.0" encoding="UTF-8" standalone="no"?>
<svg
   role="img"
   viewBox="0 0 24 24"
   version="1.1"
   id="svg6"
   sodipodi:docname="github.svg"
   inkscape:version="1.2.1 (9c6d41e410, 2022-07-14, custom)"
   xmlns:inkscape="http://www.inkscape.org/namespaces/inkscape"
   xmlns:sodipodi="http://sodipodi.sourceforge.net/DTD/sodipodi-0.dtd"
   xmlns="http://www.w3.org/2000/svg"
   xmlns:svg="http://www.w3.org/2000/svg">
  <defs
     id="defs10" />
  <sodipodi:namedview
     id="namedview8"
     pagecolor="#ffffff"
     bordercolor="#666666"
     borderopacity="1.0"
     inkscape:showpageshadow="2"
     inkscape:pageopacity="0.0"
     inkscape:pagecheckerboard="0"
     inkscape:deskcolor="#d1d1d1"
     showgrid="false"
     inkscape:zoom="36.333333"
     inkscape:cx="12"
     inkscape:cy="12.013761"
     inkscape:window-width="1920"
     inkscape:window-height="1021"
     inkscape:window-x="0"
     inkscape:window-y="30"
     inkscape:window-maximized="1"
     inkscape:current-layer="svg6" />
  <title
     id="title2">GitHub</title>
  <path
     d="M12 .297c-6.63 0-12 5.373-12 12 0 5.303 3.438 9.8 8.205 11.385.6.113.82-.258.82-.577 0-.285-.01-1.04-.015-2.04-3.338.724-4.042-1.61-4.042-1.61C4.422 18.07 3.633 17.7 3.633 17.7c-1.087-.744.084-.729.084-.729 1.205.084 1.838 1.236 1.838 1.236 1.07 1.835 2.809 1.305 3.495.998.108-.776.417-1.305.76-1.605-2.665-.3-5.466-1.332-5.466-5.93 0-1.31.465-2.38 1.235-3.22-.135-.303-.54-1.523.105-3.176 0 0 1.005-.322 3.3 1.23.96-.267 1.98-.399 3-.405 1.02.006 2.04.138 3 .405 2.28-1.552 3.285-1.23 3.285-1.23.645 1.653.24 2.873.12 3.176.765.84 1.23 1.91 1.23 3.22 0 4.61-2.805 5.625-5.475 5.92.42.36.81 1.096.81 2.22 0 1.606-.015 2.896-.015 3.286 0 .315.21.69.825.57C20.565 22.092 24 17.592 24 12.297c0-6.627-5.373-12-12-12"
     id="path4" />
  <path
     style="fill:#4d4d4d;stroke-width:0.0275229"
     d="M 8.2018349,23.660833 C 7.8491579,23.558992 7.1576312,23.271558 6.6307508,23.00781 5.2226766,22.30295 3.9270487,21.289493 2.9009857,20.090338 0.50143902,17.286001 -0.46584809,13.589754 0.24798283,9.9525476 0.64826851,7.9129591 1.6009837,5.9833296 2.9876284,4.4036697 3.3023469,4.0451436 3.9733178,3.388126 4.3211009,3.0979272 5.9013928,1.7792931 7.8141129,0.88133791 9.8323038,0.51060994 12.862463,-0.04600987 15.998286,0.58650143 18.56422,2.2718821 c 1.131631,0.7432883 2.202414,1.748774 3.017641,2.8336225 1.360816,1.8108823 2.169958,3.9363113 2.362624,6.2060664 0.0424,0.49956 0.03565,1.592086 -0.01302,2.10586 -0.222457,2.348391 -1.111882,4.525721 -2.613984,6.399083 -0.329987,0.411546 -1.040314,1.145013 -1.459685,1.507234 -1.022094,0.882811 -2.197924,1.596091 -3.426605,2.078645 -0.647132,0.254154 -0.720637,0.275176 -0.91821,0.262596 -0.228749,-0.01457 -0.368426,-0.09073 -0.471699,-0.257202 l -0.08257,-0.133101 0.0095,-1.791013 c 0.0064,-1.205931 -7.4e-4,-1.889914 -0.02177,-2.093765 -0.07435,-0.720596 -0.294032,-1.286143 -0.644132,-1.658257 -0.134949,-0.143433 -0.135388,-0.144495 -0.0598,-0.144495 0.119701,0 0.628169,-0.07866 1.005114,-0.15548 1.891145,-0.385438 3.125711,-1.260584 3.799211,-2.693144 0.408828,-0.869593 0.60123,-1.944537 0.569945,-3.184274 -0.01471,-0.582842 -0.04742,-0.81879 -0.175788,-1.267882 C 19.27047,9.6899213 18.932507,9.0564121 18.545331,8.6075304 L 18.408598,8.4490057 18.451813,8.3185395 C 18.620734,7.8085654 18.67736,7.0623239 18.592474,6.4648404 18.544967,6.1304615 18.404203,5.5629735 18.31876,5.3613699 18.265655,5.2360687 18.178485,5.2134944 17.852205,5.2405461 17.151137,5.298671 16.244132,5.6689775 15.288991,6.2870389 L 14.986239,6.4829466 14.600917,6.3933151 C 12.816904,5.9783268 10.906371,5.9931977 9.1800528,6.4355092 L 8.9885461,6.4845765 8.6448234,6.2648868 C 7.9598081,5.827061 7.2282228,5.4881505 6.6330275,5.3329123 6.3801396,5.2669544 6.2540862,5.2496317 6.0059617,5.2467394 5.7572615,5.2438404 5.6900986,5.2513417 5.6687441,5.2844037 5.622925,5.3553418 5.4849264,5.8092776 5.4260981,6.0825688 5.2625948,6.8421336 5.2913832,7.6784769 5.5021153,8.2909806 L 5.5564404,8.4488788 5.4097335,8.6212285 C 4.9428328,9.1697389 4.5790172,9.9248411 4.4315887,10.651376 c -0.1593726,0.785396 -0.1202152,1.964862 0.097452,2.935371 0.5160143,2.300742 2.1016596,3.594021 4.8700415,3.97209 0.3843858,0.05249 0.3659727,0.03203 0.2056392,0.228557 -0.253713,0.310988 -0.4473137,0.774164 -0.5620335,1.344625 -0.012147,0.06041 -0.046491,0.08422 -0.2075014,0.143905 -0.4966486,0.18409 -1.0094882,0.261261 -1.4168992,0.213213 C 6.660244,19.399737 6.1145834,19.028467 5.6082643,18.257594 5.2249814,17.674043 4.9159737,17.382076 4.4449541,17.158434 4.2020986,17.043126 3.8674954,16.954128 3.676827,16.954128 c -0.1544728,0 -0.3662172,0.0547 -0.4417652,0.114131 -0.1845732,0.145185 -0.01996,0.373002 0.5411464,0.74892 0.2118313,0.141918 0.5260734,0.476132 0.7153384,0.760803 0.143493,0.215825 0.2318174,0.387804 0.5431907,1.057661 0.1514128,0.325735 0.3064696,0.537507 0.5870978,0.801842 0.4663195,0.439245 1.0189759,0.675289 1.7731355,0.75732 0.4206327,0.04575 1.1432598,-0.0024 1.5439962,-0.102899 l 0.06282,-0.01575 -0.00777,1.126818 -0.00777,1.126817 -0.073872,0.111588 c -0.1312758,0.1983 -0.4465654,0.295682 -0.7105315,0.219457 z"
     id="path256" />
</svg>
