<?xml version="1.0" encoding="UTF-8" standalone="no"?>
<svg
   role="img"
   viewBox="0 0 24 24"
   version="1.1"
   id="svg339"
   sodipodi:docname="googlescholar.svg"
   inkscape:version="1.2.1 (9c6d41e410, 2022-07-14, custom)"
   xmlns:inkscape="http://www.inkscape.org/namespaces/inkscape"
   xmlns:sodipodi="http://sodipodi.sourceforge.net/DTD/sodipodi-0.dtd"
   xmlns="http://www.w3.org/2000/svg"
   xmlns:svg="http://www.w3.org/2000/svg">
  <defs
     id="defs343" />
  <sodipodi:namedview
     id="namedview341"
     pagecolor="#ffffff"
     bordercolor="#666666"
     borderopacity="1.0"
     inkscape:showpageshadow="2"
     inkscape:pageopacity="0.0"
     inkscape:pagecheckerboard="0"
     inkscape:deskcolor="#d1d1d1"
     showgrid="false"
     inkscape:zoom="36.333333"
     inkscape:cx="12"
     inkscape:cy="12.013761"
     inkscape:window-width="1920"
     inkscape:window-height="1021"
     inkscape:window-x="0"
     inkscape:window-y="30"
     inkscape:window-maximized="1"
     inkscape:current-layer="svg339" />
  <title
     id="title335">Google Scholar</title>
  <path
     d="M5.242 13.769L0 9.5 12 0l12 9.5-5.242 4.269C17.548 11.249 14.978 9.5 12 9.5c-2.977 0-5.548 1.748-6.758 4.269zM12 10a7 7 0 1 0 0 14 7 7 0 0 0 0-14z"
     id="path337" />
  <path
     style="fill:#4d4d4d;stroke-width:0.0275229"
     d="M 3.286323,12.156617 C 2.2252225,11.29089 1.0579927,10.33915 0.69247896,10.041637 L 0.02790842,9.5007055 6.0024666,4.770995 C 9.2884737,2.1696541 11.98804,0.0412844 12.001502,0.0412844 c 0.01346,0 2.712764,2.1282037 5.998448,4.7293415 l 5.97397,4.7293417 -0.17422,0.1422179 c -1.781042,1.4538905 -5.011037,4.0796665 -5.024685,4.0847435 -0.01,0.0037 -0.0711,-0.09696 -0.135842,-0.223716 -0.462547,-0.905628 -1.261511,-1.847502 -2.11755,-2.496312 C 15.766534,10.434602 14.841425,9.9807052 13.95138,9.7458325 12.899717,9.4683105 11.798795,9.416547 10.733945,9.5945546 8.9415878,9.8941772 7.2802192,10.882645 6.1127491,12.344037 5.8834434,12.631073 5.5365239,13.162617 5.3807339,13.465618 5.3050459,13.612827 5.2369266,13.732684 5.2293578,13.731967 5.221789,13.731252 4.3474233,13.022343 3.286323,12.156617 Z"
     id="path486" />
  <path
     style="fill:#4d4d4d;stroke-width:0.0275229"
     d="M 11.582239,23.969945 C 9.0937739,23.829321 6.842021,22.329678 5.7383532,20.077982 5.4190511,19.426543 5.2227359,18.821952 5.1083027,18.137615 4.8249092,16.442856 5.1977714,14.649777 6.1296779,13.225862 8.5911129,9.4648915 13.788772,8.9121013 16.941798,12.075954 c 1.000756,1.004192 1.670232,2.275724 1.925286,3.656686 0.272642,1.476182 0.06918,2.961348 -0.591527,4.317819 -0.990515,2.033592 -2.88993,3.458538 -5.113558,3.836204 -0.182014,0.03091 -0.465287,0.06322 -0.629494,0.07179 -0.164208,0.0086 -0.360487,0.01945 -0.436175,0.02417 -0.07569,0.0047 -0.307029,-9.79e-4 -0.514091,-0.01268 z"
     id="path488" />
</svg>
