<?xml version="1.0" encoding="UTF-8" standalone="no"?>
<svg
   role="img"
   viewBox="0 0 24 24"
   version="1.1"
   id="svg6"
   sodipodi:docname="kaggle-gray.svg"
   inkscape:version="1.2.1 (9c6d41e410, 2022-07-14, custom)"
   xmlns:inkscape="http://www.inkscape.org/namespaces/inkscape"
   xmlns:sodipodi="http://sodipodi.sourceforge.net/DTD/sodipodi-0.dtd"
   xmlns="http://www.w3.org/2000/svg"
   xmlns:svg="http://www.w3.org/2000/svg"
   xmlns:rdf="http://www.w3.org/1999/02/22-rdf-syntax-ns#"
   xmlns:cc="http://creativecommons.org/ns#"
   xmlns:dc="http://purl.org/dc/elements/1.1/">
  <defs
     id="defs10" />
  <sodipodi:namedview
     id="namedview8"
     pagecolor="#ffffff"
     bordercolor="#666666"
     borderopacity="1.0"
     inkscape:showpageshadow="2"
     inkscape:pageopacity="0.0"
     inkscape:pagecheckerboard="0"
     inkscape:deskcolor="#d1d1d1"
     showgrid="false"
     inkscape:zoom="36.333333"
     inkscape:cx="12"
     inkscape:cy="12.013761"
     inkscape:window-width="1920"
     inkscape:window-height="1021"
     inkscape:window-x="0"
     inkscape:window-y="30"
     inkscape:window-maximized="1"
     inkscape:current-layer="svg6" />
  <title
     id="title2">Kaggle</title>
  <path
     d="M.1025 7.3475c-.0681 0-.1022.0341-.1022.102v6.752c0 .0681.034.1022.1022.1022h.7049c.068 0 .1022-.034.1022-.1023v-1.481l.4187-.3985 1.5016 1.91c.041.0477.0884.0716.143.0716h.9091c.0476 0 .0748-.0135.0817-.0407.0135-.041.0066-.075-.0206-.1023l-1.9816-2.4618 1.9002-1.8384c.0204-.0205.0237-.051.01-.092-.0137-.0339-.0408-.051-.0816-.051h-.9398c-.0477 0-.0953.024-.143.0716L.9096 11.607V7.4496c0-.0679-.0342-.102-.1022-.102zm18.0417 0c-.068 0-.102.0341-.102.102v6.752c0 .0681.034.102.102.102h.705c.068 0 .102-.034.102-.102v-6.752c0-.068-.034-.102-.102-.102zM5.961 9.6254c-.5653 0-1.11.1806-1.6343.5415-.0545.0545-.0648.102-.0307.143l.3676.5208c.0272.0477.0717.0545.133.0204.3948-.2722.783-.4086 1.1644-.4086.2927 0 .5158.0886.669.2656.1532.1771.2197.3917.1992.6436-.6606.0681-1.1545.1495-1.4813.245-.8308.2383-1.2461.6913-1.2461 1.3586 0 .4222.1533.7695.4598 1.0419.3132.2654.6845.3982 1.1134.3982.4698 0 .8545-.1125 1.1542-.3372v.1432c0 .0682.0374.102.1123.102h.7048c.068 0 .102-.0338.102-.102V11.372c0-.6604-.2245-1.1406-.6739-1.4403-.3065-.2043-.6776-.3063-1.1134-.3063zm4.3225 0c-.6742 0-1.195.2622-1.5627.7865-.3133.4359-.4699.9671-.4699 1.5936 0 .6604.1634 1.2087.4903 1.6444.3744.4972.892.7455 1.5526.7455.5313 0 .9567-.1327 1.2768-.3982v.531c0 .858-.4122 1.287-1.236 1.287-.361 0-.732-.1907-1.1132-.572a.098.098 0 00-.0716-.0306c-.034 0-.0613.0102-.0817.0307l-.4802.48c-.0408.0613-.0375.1124.0103.1532.1361.1157.2554.2129.3576.2911.102.0783.1905.1413.2656.189.354.1975.7284.2961 1.1235.2961.6808 0 1.207-.1925 1.5781-.577.3711-.3848.5567-.9484.5567-1.6903V9.8196c0-.068-.034-.102-.102-.102h-.705c-.0682 0-.1021.034-.1021.102v.2043c-.3471-.2657-.7763-.3985-1.287-.3985zm4.8021 0c-.6742 0-1.195.2622-1.5627.7865-.3132.4359-.4699.9671-.4699 1.5936 0 .6604.1633 1.2087.4903 1.6444.3744.4972.892.7455 1.5526.7455.5311 0 .9566-.1327 1.2768-.3982v.531c0 .858-.4122 1.287-1.236 1.287-.361 0-.732-.1907-1.1133-.572a.098.098 0 00-.0716-.0306c-.034 0-.0612.0102-.0816.0307l-.48.48c-.0409.0613-.0376.1124.01.1532.1363.1157.2555.2129.3576.2911.1021.0783.1906.1413.2657.189.354.1975.7285.2961 1.1237.2961.6808 0 1.2068-.1925 1.5781-.577.371-.3848.5565-.9484.5565-1.6903V9.8196c0-.068-.034-.102-.102-.102h-.7049c-.0682 0-.1022.034-.1022.102v.2043c-.3474-.2657-.7763-.3985-1.287-.3985zm6.7457 0c-.6537 0-1.185.211-1.5936.6332-.4427.4632-.664 1.0283-.664 1.6956 0 .7083.225 1.2905.6743 1.7467.463.463 1.042.6945 1.7366.6945.6467 0 1.2154-.1838 1.7057-.5515.0545-.041.0545-.0884 0-.143l-.4802-.4903c-.041-.0409-.0919-.0409-.1533 0-.2998.2112-.6368.3167-1.0112.3167-.4222 0-.7729-.119-1.052-.3576-.2452-.2248-.3882-.5038-.429-.8375h3.3197c.0679 0 .1022-.0341.1022-.1023l.01-.2244c.0341-.6878-.1668-1.26-.6025-1.7162-.4224-.4426-.9432-.664-1.5627-.664zm-.0206.7865c.3268 0 .6062.1056.8377.3166.2452.211.371.4734.378.7865h-2.4618c.0613-.3269.2077-.5925.4392-.7968.2313-.2042.5004-.3063.8069-.3063zm-11.4249.102c.6196 0 1.0146.2181 1.1848.6538v1.6854c-.1702.4358-.5755.6538-1.2155.6538-.3133 0-.5687-.0986-.7661-.2963-.2656-.2518-.3983-.6538-.3983-1.2053 0-.9941.3984-1.4914 1.1951-1.4914zm4.802 0c.6196 0 1.0148.2181 1.1851.6538h-.0002v1.6854c-.1703.4358-.5755.6538-1.2155.6538-.3132 0-.5686-.0986-.7661-.2963-.2655-.2518-.3983-.6538-.3983-1.2053 0-.9941.3983-1.4914 1.195-1.4914zm-8.3586 1.6547v1.0215c-.286.286-.6675.412-1.1441.3779-.1703-.0135-.32-.0663-.4493-.1582-.1294-.0919-.2045-.2129-.2249-.3627-.0341-.2657.1158-.47.4495-.6129.2452-.1088.7013-.1974 1.3688-.2656z"
     id="path4" />
  <path
     style="fill:#4d4d4d;stroke-width:0.0275229"
     d="M 0.04587156,14.266055 C 0.03577982,14.255963 0.02752294,12.702167 0.02752294,10.813174 V 7.3786411 l 0.09305667,-0.017458 c 0.12609014,-0.023655 0.72251248,-0.0045 0.75105478,0.024127 0.0125736,0.012609 0.0290537,0.9705738 0.0366225,2.1288115 L 0.92201835,11.620008 1.8519459,10.681564 2.7818736,9.7431193 h 0.5356687 c 0.5058578,0 0.5356687,0.00288 0.5356687,0.051725 0,0.031909 -0.3637748,0.4028377 -0.9495413,0.9682147 -0.5222477,0.504069 -0.9495413,0.924921 -0.9495413,0.935228 0,0.01031 0.4521838,0.580559 1.0048528,1.267227 0.5526691,0.686669 1.000615,1.261233 0.9954358,1.276808 -0.00588,0.01769 -0.2009062,0.03113 -0.5194195,0.03579 -0.4552676,0.0067 -0.516008,0.0022 -0.5659591,-0.04128 -0.030776,-0.02682 -0.3808344,-0.463667 -0.7779071,-0.970777 -0.3970728,-0.50711 -0.7314799,-0.932496 -0.743127,-0.945302 -0.011647,-0.01281 -0.115355,0.06618 -0.230462,0.175518 l -0.20928542,0.1988 v 0.74143 c 0,0.458453 -0.0108741,0.761748 -0.0284913,0.794666 -0.0261291,0.04882 -0.0611182,0.05324 -0.42201834,0.05324 -0.21643988,0 -0.40178394,-0.0083 -0.41187568,-0.01835 z"
     id="path185" />
  <path
     style="fill:#4d4d4d;stroke-width:0.0275229"
     d="M 5.4703118,14.365212 C 5.218067,14.336422 4.9619381,14.247039 4.7699878,14.120815 4.3053833,13.815296 4.1122443,13.445178 4.1329703,12.900082 c 0.0093,-0.244589 0.02182,-0.304533 0.097051,-0.464658 0.2796746,-0.595273 0.889348,-0.864945 2.35836,-1.043153 l 0.271868,-0.03298 -0.016969,-0.16235 C 6.8046063,10.82693 6.5915269,10.560792 6.262689,10.47178 c -0.3635369,-0.0984 -0.846608,-0.0043 -1.2900525,0.251295 -0.11849,0.0683 -0.232236,0.120357 -0.2527687,0.115689 -0.042739,-0.0097 -0.4257039,-0.541866 -0.4260572,-0.592028 -5.718e-4,-0.08118 0.5355019,-0.3707961 0.8979915,-0.485141 0.9947931,-0.3138009 1.9859543,-0.00383 2.3505242,0.735083 0.1874796,0.379987 0.1933013,0.449779 0.1850816,2.218919 l -0.00722,1.555046 H 7.293578 6.8669725 l -0.00846,-0.116972 c -0.00465,-0.06433 -0.012443,-0.116973 -0.017308,-0.116973 -0.00486,0 -0.081561,0.0438 -0.170436,0.09733 -0.088875,0.05353 -0.2405402,0.121724 -0.3370331,0.151538 -0.1573376,0.04861 -0.2401532,0.06175 -0.581439,0.09223 -0.052982,0.0047 -0.1798735,-9.33e-4 -0.2819818,-0.01258 z M 6.233945,13.536587 c 0.1658836,-0.03652 0.3134178,-0.107506 0.4885321,-0.235048 l 0.1307339,-0.09522 v -0.520592 -0.520591 l -0.089449,1.26e-4 c -0.1546137,2.2e-4 -0.8161387,0.105894 -1.0297443,0.164496 -0.5545549,0.15214 -0.8021024,0.412648 -0.7238642,0.761763 0.038535,0.171951 0.1253844,0.282294 0.2947389,0.374469 0.2317948,0.126158 0.5625342,0.15129 0.9290531,0.07059 z"
     id="path187" />
  <path
     style="fill:#4d4d4d;stroke-width:0.0275229"
     d="M 10.108435,16.623466 C 9.876209,16.598496 9.5683012,16.509853 9.3722538,16.41153 9.1030689,16.276525 8.587156,15.875593 8.587156,15.801407 c 0,-0.02506 0.1229815,-0.168079 0.2732923,-0.317826 0.3131826,-0.312007 0.2473949,-0.308629 0.5799187,-0.02978 0.3398291,0.284976 0.643697,0.390569 1.045413,0.363277 0.625568,-0.0425 0.974612,-0.355004 1.072882,-0.960567 0.0295,-0.181784 0.03972,-0.874861 0.0129,-0.874861 -0.0086,0 -0.05534,0.03031 -0.103915,0.06736 -0.273914,0.208924 -0.688787,0.322623 -1.174065,0.321762 C 9.4843664,14.369341 8.9025431,14.006421 8.5356063,13.274218 8.2568904,12.718056 8.1878087,11.858889 8.3688329,11.200065 8.5271188,10.623994 8.8988254,10.114636 9.3410674,9.8677895 9.6260193,9.7087375 9.8928596,9.6489848 10.307339,9.6514153 c 0.49162,0.00288 0.836513,0.1013152 1.183487,0.3377661 l 0.08257,0.056268 0.01376,-0.1442836 0.01376,-0.1442843 h 0.426606 0.426605 l 0.0082,2.3944949 c 0.0057,1.655943 -0.0014,2.473502 -0.02283,2.650646 -0.102246,0.84368 -0.483801,1.399828 -1.144586,1.668329 -0.314442,0.127769 -0.817934,0.192744 -1.186493,0.153115 z m 0.845693,-3.18817 c 0.230363,-0.07499 0.430883,-0.228705 0.543578,-0.416684 l 0.08945,-0.149205 v -0.848431 c 0,-0.671702 -0.0082,-0.867968 -0.03919,-0.942216 -0.06331,-0.151514 -0.262312,-0.345986 -0.440677,-0.430639 -0.233434,-0.110788 -0.418856,-0.141411 -0.783308,-0.129364 -0.279475,0.0092 -0.3408452,0.02035 -0.4909844,0.08892 -0.3120296,0.142492 -0.5139548,0.426375 -0.6021806,0.846596 -0.054961,0.261781 -0.055471,0.827264 -9.807e-4,1.086761 0.099872,0.475612 0.3703601,0.804343 0.7688589,0.934413 0.1761688,0.0575 0.7265168,0.03438 0.9554298,-0.04015 z"
     id="path189" />
  <path
     style="fill:#4d4d4d;stroke-width:0.0275229"
     d="m 14.896637,16.621007 c -0.429542,-0.04996 -0.783672,-0.199521 -1.148931,-0.485224 -0.292406,-0.228718 -0.371559,-0.301624 -0.371559,-0.342234 0,-0.0355 0.45937,-0.511093 0.531205,-0.54997 0.04018,-0.02175 0.08703,0.0052 0.247706,0.142452 0.464605,0.396886 0.852595,0.51 1.371841,0.399943 0.347254,-0.0736 0.57804,-0.24321 0.708956,-0.521023 0.113713,-0.241304 0.140292,-0.40636 0.140292,-0.87121 v -0.410889 l -0.16986,0.109786 c -0.437712,0.282907 -1.212855,0.367037 -1.756746,0.190668 -0.60408,-0.195887 -1.092465,-0.757439 -1.286608,-1.479362 -0.06486,-0.24117 -0.07202,-0.31693 -0.0734,-0.776421 -0.0017,-0.577459 0.04229,-0.823045 0.214201,-1.195135 0.337203,-0.729832 0.870115,-1.1196193 1.624146,-1.1879478 0.407952,-0.036968 0.946564,0.086294 1.276243,0.2920696 l 0.172019,0.1073682 V 9.9370342 c 0,-0.199796 -0.01389,-0.1939149 0.457875,-0.1939149 h 0.424463 l -0.008,2.6077977 c -0.008,2.602178 -0.0081,2.608273 -0.06945,2.827982 -0.197303,0.70705 -0.619218,1.154508 -1.281233,1.358799 -0.148384,0.04579 -0.7265,0.126379 -0.789705,0.110084 -0.0076,-0.002 -0.103624,-0.014 -0.213455,-0.02678 z m 0.71283,-3.14696 c 0.233332,-0.04946 0.391888,-0.129276 0.541887,-0.272797 0.227899,-0.218058 0.224793,-0.20141 0.224793,-1.204625 v -0.886301 l -0.08661,-0.134967 c -0.105161,-0.16388 -0.278904,-0.300938 -0.487176,-0.384312 -0.138025,-0.05525 -0.203697,-0.06231 -0.58218,-0.0626 -0.404648,-3.05e-4 -0.434677,0.0034 -0.583445,0.07292 -0.289254,0.135086 -0.48495,0.389586 -0.590215,0.767568 -0.0698,0.250614 -0.07061,0.982173 -0.0014,1.236567 0.123759,0.454745 0.382713,0.744973 0.775953,0.869665 0.148456,0.04707 0.563766,0.04648 0.788366,-0.0011 z"
     id="path191" />
  <path
     style="fill:#4d4d4d;stroke-width:0.0275229"
     d="m 18.074083,14.266744 c -0.01047,-0.01047 -0.01904,-1.55851 -0.01904,-3.440087 0,-3.3541239 10e-4,-3.4216079 0.05324,-3.4495418 0.07805,-0.041771 0.722994,-0.03689 0.781164,0.00591 0.04362,0.032099 0.04628,0.2639086 0.03966,3.4610098 l -0.0071,3.426605 -0.414449,0.0076 c -0.227947,0.0042 -0.423016,-9.96e-4 -0.433486,-0.01147 z"
     id="path193" />
  <path
     style="fill:#4d4d4d;stroke-width:0.0275229"
     d="m 21.715596,14.366372 c -1.012584,-0.104843 -1.797036,-0.772135 -2.053854,-1.747106 -0.0729,-0.276754 -0.07304,-1.020747 -2.45e-4,-1.293578 0.213482,-0.800113 0.809514,-1.4220052 1.542559,-1.6094866 0.897889,-0.2296412 1.797548,0.064511 2.324479,0.7600106 0.320337,0.422814 0.443441,0.816641 0.443749,1.419609 1.65e-4,0.345136 -0.0044,0.379912 -0.05304,0.405963 -0.035,0.01873 -0.619473,0.02849 -1.706422,0.02849 -1.878086,0 -1.690879,-0.02903 -1.609549,0.249592 0.121565,0.416459 0.458897,0.746905 0.904761,0.886291 0.157232,0.04915 0.258725,0.06043 0.537841,0.05976 0.303826,-7.32e-4 0.369771,-0.0098 0.56422,-0.07736 0.121101,-0.04209 0.287924,-0.117936 0.370718,-0.168538 0.101933,-0.0623 0.164136,-0.08462 0.192661,-0.06912 0.02317,0.01258 0.159747,0.143061 0.303507,0.289948 l 0.261383,0.267068 -0.09989,0.08623 c -0.138519,0.119573 -0.492845,0.303397 -0.739387,0.383593 -0.356116,0.115838 -0.820075,0.166268 -1.183487,0.12864 z m 1.321101,-2.911835 c 0,-0.131224 -0.08406,-0.369456 -0.182934,-0.518423 -0.111298,-0.167691 -0.320587,-0.336263 -0.54509,-0.439044 -0.231792,-0.106118 -0.593221,-0.123797 -0.86198,-0.04216 -0.216956,0.0659 -0.468835,0.236107 -0.60637,0.409759 -0.107677,0.135954 -0.249898,0.433311 -0.271801,0.568289 l -0.01609,0.09916 h 1.242133 1.242133 z"
     id="path195" />
  <metadata
     id="metadata213">
    <rdf:RDF>
      <cc:Work
         rdf:about="">
        <dc:title>Kaggle</dc:title>
      </cc:Work>
    </rdf:RDF>
  </metadata>
</svg>
