<?xml version="1.0" encoding="UTF-8" standalone="no"?>
<svg
   role="img"
   viewBox="0 0 24 24"
   version="1.1"
   id="svg349"
   sodipodi:docname="linkedin.svg"
   inkscape:version="1.2.1 (9c6d41e410, 2022-07-14, custom)"
   xmlns:inkscape="http://www.inkscape.org/namespaces/inkscape"
   xmlns:sodipodi="http://sodipodi.sourceforge.net/DTD/sodipodi-0.dtd"
   xmlns="http://www.w3.org/2000/svg"
   xmlns:svg="http://www.w3.org/2000/svg">
  <defs
     id="defs353" />
  <sodipodi:namedview
     id="namedview351"
     pagecolor="#ffffff"
     bordercolor="#666666"
     borderopacity="1.0"
     inkscape:showpageshadow="2"
     inkscape:pageopacity="0.0"
     inkscape:pagecheckerboard="0"
     inkscape:deskcolor="#d1d1d1"
     showgrid="false"
     inkscape:zoom="36.333333"
     inkscape:cx="12"
     inkscape:cy="12.013761"
     inkscape:window-width="1920"
     inkscape:window-height="1021"
     inkscape:window-x="0"
     inkscape:window-y="30"
     inkscape:window-maximized="1"
     inkscape:current-layer="svg349" />
  <title
     id="title345">LinkedIn</title>
  <path
     d="M20.447 20.452h-3.554v-5.569c0-1.328-.027-3.037-1.852-3.037-1.853 0-2.136 1.445-2.136 2.939v5.667H9.351V9h3.414v1.561h.046c.477-.9 1.637-1.85 3.37-1.85 3.601 0 4.267 2.37 4.267 5.455v6.286zM5.337 7.433c-1.144 0-2.063-.926-2.063-2.065 0-1.138.92-2.063 2.063-2.063 1.14 0 2.064.925 2.064 2.063 0 1.139-.925 2.065-2.064 2.065zm1.782 13.019H3.555V9h3.564v11.452zM22.225 0H1.771C.792 0 0 .774 0 1.729v20.542C0 23.227.792 24 1.771 24h20.451C23.2 24 24 23.227 24 22.271V1.729C24 .774 23.2 0 22.222 0h.003z"
     id="path347" />
  <path
     style="fill:#4d4d4d;stroke-width:0.0275229"
     d="M 1.5621913,23.971355 C 0.86192659,23.889063 0.25193683,23.362063 0.06224306,22.675477 0.01634093,22.509336 0.01376147,21.941348 0.01376147,12 c 0,-9.9413483 0.0025795,-10.5093362 0.04848159,-10.6754765 C 0.22864101,0.72225495 0.73177291,0.22846633 1.3486239,0.06203103 1.5176762,0.01641826 2.103935,0.01376147 12,0.01376147 c 10.036105,0 10.479932,0.0020834 10.651376,0.04999888 0.628134,0.1755515 1.112918,0.65013952 1.284353,1.25734055 0.0486,0.1721236 0.05051,0.5765667 0.05051,10.6788991 0,10.102332 -0.0019,10.506776 -0.05051,10.678899 -0.17241,0.610654 -0.627682,1.057917 -1.281277,1.258736 -0.144955,0.04454 -0.792439,0.0477 -10.530599,0.05149 -5.7068805,0.0022 -10.4596284,-0.0058 -10.5616617,-0.01777 z M 7.1284404,14.738532 V 9 H 5.3394495 3.5504587 v 5.738532 5.738532 h 1.7889908 1.7889909 z m 5.7873026,2.566514 c 0.01179,-3.456509 0.01256,-3.474403 0.172846,-4.027511 0.208051,-0.717941 0.665547,-1.189468 1.306324,-1.34639 0.288252,-0.07059 0.798049,-0.0847 1.073709,-0.02972 0.756478,0.150882 1.157509,0.635536 1.339781,1.619151 0.04257,0.229744 0.04807,0.582456 0.05621,3.605573 l 0.009,3.350917 h 1.787957 1.787957 v -3.560223 c 0,-4.053915 -0.0091,-4.278835 -0.209946,-5.19207 C 19.965175,10.477032 19.367237,9.617534 18.454128,9.1582764 17.45273,8.6546125 15.894052,8.5534638 14.793913,8.9207507 14.483605,9.0243484 14.026897,9.2602673 13.775229,9.4469659 13.489172,9.6591762 13.13383,10.029178 12.948383,10.307925 l -0.163979,0.24648 -0.0073,-0.7772027 L 12.769785,9 H 11.05003 9.3302752 v 5.738532 5.738532 H 11.117598 12.90492 Z M 5.8348624,7.3851025 C 5.9332569,7.3625978 6.131422,7.2868982 6.2752294,7.2168809 6.4969329,7.1089373 6.5744439,7.0517213 6.7848991,6.84066 7.0629515,6.5618067 7.2035766,6.3420383 7.3140135,6.0137615 7.381535,5.8130521 7.3881669,5.7558471 7.3889972,5.3669725 7.3898725,4.9573786 7.3864679,4.9307513 7.303631,4.6992328 7.1811922,4.3570302 7.0656432,4.1764123 6.7978263,3.9085957 6.5285953,3.6393647 6.3468636,3.5235429 6.0071893,3.4047052 5.8004961,3.332392 5.7165853,3.3186418 5.4196984,3.3084352 4.9991917,3.2939785 4.735042,3.3496395 4.3761468,3.5283297 4.1870328,3.6224876 4.0914944,3.6951911 3.8775919,3.9077235 3.6474451,4.1363961 3.5966832,4.2046329 3.4878388,4.4316495 3.3231113,4.7752217 3.2696582,5.0044734 3.2699953,5.3659439 c 3.413e-4,0.3648284 0.054955,0.6042289 0.2105777,0.9230469 0.4273663,0.8755308 1.379842,1.318985 2.3542894,1.0961117 z"
     id="path409" />
</svg>
